<svg id="Layer_1" data-name="Layer 1" xmlns="http://www.w3.org/2000/svg" viewBox="0 0 252.44 56.38"><defs><style>.cls-1{fill:#fff;}.cls-2{fill:#0091da;}.cls-3{fill:#1bc1d5;}.cls-4{fill:#78be20;}.cls-5{fill:#1d428a;}</style></defs><title>TZLG-VMwareTanzu-GemFire-WHITETEXT</title><g id="Layer_1-2" data-name="Layer 1-2"><path class="cls-1" d="M93.72,5.31l-7.4,17.18H83.55L76.15,5.31H79l6,14,6-14Z"/><path class="cls-1" d="M96.9,5.31h2.52l6,11.23,6-11.23H114V22.49h-2.53V10.26l-6,11.23-6-11.23V22.49H96.9Z"/><path class="cls-1" d="M117,9.56h2.52l3,9.63,3.2-9.63h2.1l3.2,9.63,3-9.63h2.53l-4.37,12.93H129.9l-3.07-9.6-3.13,9.6h-2.4Z"/><path class="cls-1" d="M147.7,10.74a5.41,5.41,0,0,1,1.42,3.92v7.83H146.7V20.74a4.63,4.63,0,0,1-1.88,1.51,5.67,5.67,0,0,1-2.43.54A5.15,5.15,0,0,1,139,21.66a3.71,3.71,0,0,1-1.35-3,3.77,3.77,0,0,1,.69-2.23,4.5,4.5,0,0,1,1.87-1.53,6.22,6.22,0,0,1,2.62-.54,12.32,12.32,0,0,1,3.9.7v-.4a3.67,3.67,0,0,0-.78-2.38,3.11,3.11,0,0,0-2.55-1,8.15,8.15,0,0,0-3.62,1.08l-.93-1.83a11,11,0,0,1,4.9-1.3A5.28,5.28,0,0,1,147.7,10.74Zm-2.4,9.46a2.84,2.84,0,0,0,1.4-1.76V16.71a12.1,12.1,0,0,0-3.53-.5,3.78,3.78,0,0,0-2.25.68,2,2,0,0,0-.11,3.34,3.37,3.37,0,0,0,2.08.61A4.63,4.63,0,0,0,145.3,20.2Z"/><path class="cls-1" d="M157.23,10a5.62,5.62,0,0,1,2.94-.77v2.15a5.82,5.82,0,0,0-2.5.53,3.94,3.94,0,0,0-2.3,3.67v6.88h-2.48V9.56h2.48v2.53A4.65,4.65,0,0,1,157.23,10Z"/><path class="cls-1" d="M170.83,20.31a4.6,4.6,0,0,0,1.69-1L174,20.79a5.77,5.77,0,0,1-2.31,1.45,8.31,8.31,0,0,1-2.92.55A6.68,6.68,0,0,1,163,19.48a6.79,6.79,0,0,1-.91-3.49,6.8,6.8,0,0,1,.87-3.44,6.45,6.45,0,0,1,2.37-2.41,6.33,6.33,0,0,1,3.26-.88,6,6,0,0,1,3.36.93,5.8,5.8,0,0,1,2.15,2.62,10,10,0,0,1,.74,4H164.49a4.58,4.58,0,0,0,1.37,2.84,3.92,3.92,0,0,0,2.83,1.09A5.64,5.64,0,0,0,170.83,20.31Zm-4.9-8A4.33,4.33,0,0,0,164.52,15h7.9a4.48,4.48,0,0,0-1.19-2.65,3.48,3.48,0,0,0-2.61-1,4,4,0,0,0-2.69,1Z"/><path class="cls-1" d="M188.87,7.66h-5.65V5.31H197V7.66h-5.63V22.49h-2.52Z"/><path class="cls-1" d="M208.59,10.74A5.41,5.41,0,0,1,210,14.66v7.83h-2.43V20.74a4.6,4.6,0,0,1-1.87,1.51,5.82,5.82,0,0,1-2.43.54,5.12,5.12,0,0,1-3.42-1.13,3.71,3.71,0,0,1-1.35-3,3.77,3.77,0,0,1,.69-2.23,4.5,4.5,0,0,1,1.87-1.53,6.17,6.17,0,0,1,2.61-.54,12.32,12.32,0,0,1,3.9.7v-.4a3.66,3.66,0,0,0-.77-2.38,3.11,3.11,0,0,0-2.55-1,8.15,8.15,0,0,0-3.63,1.08l-.92-1.83a11,11,0,0,1,4.9-1.3A5.3,5.3,0,0,1,208.59,10.74Zm-2.4,9.46a2.81,2.81,0,0,0,1.4-1.76V16.71a12,12,0,0,0-3.52-.5,3.71,3.71,0,0,0-2.25.68,2,2,0,0,0-.93,1.7,1.93,1.93,0,0,0,.82,1.64,3.37,3.37,0,0,0,2.08.61A4.62,4.62,0,0,0,206.19,20.2Z"/><path class="cls-1" d="M222.89,9.89a4.35,4.35,0,0,1,1.72,1.76,5.63,5.63,0,0,1,.61,2.61v8.23h-2.4v-7.8a3.35,3.35,0,0,0-.83-2.36,2.74,2.74,0,0,0-2.15-.92,3.9,3.9,0,0,0-1.8.42,3.32,3.32,0,0,0-1.3,1.11,2.67,2.67,0,0,0-.47,1.52v8h-2.48V9.56h2.48v1.9A4.25,4.25,0,0,1,218,9.88a5.19,5.19,0,0,1,4.93,0Z"/><path class="cls-1" d="M227.82,20.64l7.25-8.85H228V9.56h10.37v1.85l-7.25,8.85h7.32v2.23H227.82Z"/><path class="cls-1" d="M252.44,9.56V22.49H250V20.64a4.4,4.4,0,0,1-1.7,1.56,5.13,5.13,0,0,1-2.43.59,5.08,5.08,0,0,1-2.5-.63,4.33,4.33,0,0,1-1.71-1.76,5.39,5.39,0,0,1-.61-2.61V9.56h2.42v7.8a3.43,3.43,0,0,0,.83,2.37,2.75,2.75,0,0,0,2.15.91,3.91,3.91,0,0,0,1.78-.41,3.25,3.25,0,0,0,1.29-1.12,2.66,2.66,0,0,0,.48-1.52v-8Z"/><path class="cls-1" d="M85.42,43.24h7.13v6.85a9.1,9.1,0,0,1-3.08,2,10,10,0,0,1-3.7.74,8.47,8.47,0,0,1-4.42-1.21,9.26,9.26,0,0,1-3.28-3.27,8.58,8.58,0,0,1,0-8.83,9.28,9.28,0,0,1,3.28-3.25A8.53,8.53,0,0,1,85.77,35a10.2,10.2,0,0,1,3.7.73,8.63,8.63,0,0,1,3.08,2l-1.78,1.7a6.28,6.28,0,0,0-2.26-1.51,7.37,7.37,0,0,0-2.74-.56,6,6,0,0,0-3.16.9,6.7,6.7,0,0,0-2.33,2.4,6.57,6.57,0,0,0,0,6.51,6.65,6.65,0,0,0,2.33,2.41,6,6,0,0,0,3.16.9A7.36,7.36,0,0,0,90.05,49V45.4H85.42Z"/><path class="cls-1" d="M104.08,50.31a4.58,4.58,0,0,0,1.69-1.05l1.45,1.53a5.77,5.77,0,0,1-2.31,1.45,8.26,8.26,0,0,1-2.91.55,6.68,6.68,0,0,1-5.77-3.31,7.14,7.14,0,0,1,0-6.92,6.42,6.42,0,0,1,2.36-2.41,6.33,6.33,0,0,1,3.26-.88,6,6,0,0,1,3.36.93,5.8,5.8,0,0,1,2.15,2.62,10,10,0,0,1,.74,4H97.75a4.54,4.54,0,0,0,1.36,2.84A3.93,3.93,0,0,0,102,50.74,5.73,5.73,0,0,0,104.08,50.31Zm-4.9-8A4.43,4.43,0,0,0,97.77,45h7.9a4.48,4.48,0,0,0-1.19-2.65,3.44,3.44,0,0,0-2.61-1A4,4,0,0,0,99.18,42.31Z"/><path class="cls-1" d="M127.83,39.9a4.47,4.47,0,0,1,1.67,1.78,5.38,5.38,0,0,1,.6,2.58v8.23h-2.4V44.64a3.4,3.4,0,0,0-.78-2.33,2.48,2.48,0,0,0-2-.9,3.18,3.18,0,0,0-2.29.84,2.85,2.85,0,0,0-.89,2.16v8.08h-2.42V44.64a3.52,3.52,0,0,0-.77-2.33,2.45,2.45,0,0,0-2-.9,3.22,3.22,0,0,0-2.29.84,2.84,2.84,0,0,0-.88,2.16v8.08H111V39.56h2.48v1.85a3.75,3.75,0,0,1,1.46-1.57,4.27,4.27,0,0,1,2.21-.58,4.43,4.43,0,0,1,2.68.83,4.58,4.58,0,0,1,1.65,2.25,3.74,3.74,0,0,1,1.4-2.23,4.14,4.14,0,0,1,2.6-.85A4.61,4.61,0,0,1,127.83,39.9Z"/><path class="cls-1" d="M137,37.66v5h9.1V45H137v7.48h-2.6V35.31H147v2.35Z"/><path class="cls-1" d="M150.18,37a1.48,1.48,0,0,1-.43-1,1.39,1.39,0,0,1,.43-1,1.44,1.44,0,0,1,1.07-.44,1.47,1.47,0,0,1,1,2.52,1.41,1.41,0,0,1-1,.45A1.44,1.44,0,0,1,150.18,37ZM150,39.6h2.47V52.49H150Z"/><path class="cls-1" d="M160.86,40a5.62,5.62,0,0,1,2.94-.77v2.15a5.82,5.82,0,0,0-2.5.53,4,4,0,0,0-1.71,1.49,4.08,4.08,0,0,0-.59,2.18v6.88h-2.48V39.56H159v2.53A4.65,4.65,0,0,1,160.86,40Z"/><path class="cls-1" d="M174.46,50.31a4.46,4.46,0,0,0,1.68-1.05l1.45,1.53a5.77,5.77,0,0,1-2.31,1.45,8.26,8.26,0,0,1-2.91.55,6.66,6.66,0,0,1-5.76-3.31,7.17,7.17,0,0,1,0-6.92,6.42,6.42,0,0,1,5.63-3.29,6,6,0,0,1,3.36.93,5.8,5.8,0,0,1,2.15,2.62,10,10,0,0,1,.74,4H168.12a4.54,4.54,0,0,0,1.36,2.84,3.94,3.94,0,0,0,2.84,1.09A5.85,5.85,0,0,0,174.46,50.31Zm-4.9-8A4.39,4.39,0,0,0,168.14,45h7.91a4.48,4.48,0,0,0-1.19-2.65,3.48,3.48,0,0,0-2.61-1,4,4,0,0,0-2.69,1Z"/><path class="cls-2" d="M37.69,50.43H20.05a2.24,2.24,0,0,1-1.78-.84L7.2,35.71a2.25,2.25,0,0,1-.41-2l4.28-17a2.73,2.73,0,0,1,1.15-1.46L27.88,7.41a2.2,2.2,0,0,1,2,0l15.87,7.83A2.41,2.41,0,0,1,47,16.81l4.07,17a2.32,2.32,0,0,1-.41,2L39.47,49.59A2.63,2.63,0,0,1,37.69,50.43Zm-17.54-2.3H37.59L48.76,34.25l-4.07-17L28.92,9.4,13.26,17.23l-4.18,17Z"/><polygon class="cls-3" points="49.07 12.01 51.05 10.34 30.07 0 30.07 2.61 49.07 12.01"/><polygon class="cls-4" points="3.03 36.44 0.52 36.96 15.14 55.34 16.29 53.04 3.03 36.44"/><polygon class="cls-3" points="27.77 2.61 27.77 0 7 10.34 8.98 12.01 27.77 2.61"/><polygon class="cls-5" points="7.62 13.99 5.53 12.21 0 34.66 2.61 34.14 7.62 13.99"/><polygon class="cls-5" points="55.23 34.14 57.84 34.66 52.52 12.21 50.53 13.89 55.23 34.14"/><polygon class="cls-4" points="54.71 36.44 41.34 53.04 42.49 55.34 57.32 36.96 54.71 36.44"/><polygon class="cls-3" points="18.38 53.98 17.23 56.38 40.41 56.38 39.26 53.98 18.38 53.98"/></g></svg>
