<svg id="Layer_1" data-name="Layer 1" xmlns="http://www.w3.org/2000/svg" viewBox="0 0 36 36"><defs><style>.cls-1{fill:#6db33f;}</style></defs><title>spring-boot-7f2e24fb962501672cc91ccd285ed2ba</title><g id="Layer_2" data-name="Layer 2"><g id="Layer_1-2" data-name="Layer 1-2"><path class="cls-1" d="M41.28,23.2,34.7,11.8A4,4,0,0,0,31.58,10H18.42a4,4,0,0,0-3.12,1.8L8.72,23.2a4,4,0,0,0,0,3.6L15.3,38.2A4,4,0,0,0,18.42,40H31.58a4,4,0,0,0,3.12-1.8l6.58-11.4A4,4,0,0,0,41.28,23.2ZM23.57,16.3a1.36,1.36,0,0,1,2.72,0v8.11a1.36,1.36,0,1,1-2.72,0h0V16.3Zm1.36,17.31A9.2,9.2,0,0,1,19.45,17a1.22,1.22,0,0,1,1.69.25A1.2,1.2,0,0,1,20.89,19h0a6.79,6.79,0,1,0,8.06,0A1.21,1.21,0,0,1,30.39,17a9.2,9.2,0,0,1-5.46,16.61Z" transform="translate(-8.29 -10)"/></g></g></svg>
