<svg id="Layer_1" data-name="Layer 1" xmlns="http://www.w3.org/2000/svg" xmlns:xlink="http://www.w3.org/1999/xlink" viewBox="0 0 30.59 37.24"><defs><style>.cls-1,.cls-2{fill:url(#linear-gradient);}.cls-1{clip-rule:evenodd;}.cls-2{fill-rule:evenodd;}.cls-3{clip-path:url(#clip-path);}.cls-4{fill:none;}.cls-5{fill:url(#linear-gradient-3);}.cls-6{fill:url(#linear-gradient-4);}.cls-7{fill:url(#linear-gradient-5);}.cls-8{fill:url(#linear-gradient-6);}.cls-9{fill:url(#linear-gradient-7);}.cls-10{fill:url(#linear-gradient-8);}</style><linearGradient id="linear-gradient" x1="30.01" y1="13.57" x2="17.92" y2="38.24" gradientUnits="userSpaceOnUse"><stop offset="0" stop-color="#3F873F"/><stop offset="0.33" stop-color="#3F8B3D"/><stop offset="0.64" stop-color="#3E9637"/><stop offset="0.93" stop-color="#3DA92E"/><stop offset="1" stop-color="#3DAE2B"/></linearGradient><clipPath id="clip-path" transform="translate(-9.46 -4.97)"><path class="cls-1" d="M25.38,7.81a1.67,1.67,0,0,0-1.62,0L10.38,15.54a1.62,1.62,0,0,0-.81,1.4V32.4a1.62,1.62,0,0,0,.81,1.4l13.38,7.73a1.62,1.62,0,0,0,1.62,0L38.76,33.8a1.62,1.62,0,0,0,.81-1.4V16.94a1.62,1.62,0,0,0-.81-1.4Z"/></clipPath><linearGradient id="linear-gradient-3" x1="22.53" y1="26.48" x2="56.46" y2="1.41" gradientUnits="userSpaceOnUse"><stop offset="0.14" stop-color="#3F873F"/><stop offset="0.4" stop-color="#529F44"/><stop offset="0.71" stop-color="#63B649"/><stop offset="0.91" stop-color="#6ABF4B"/></linearGradient><linearGradient id="linear-gradient-4" x1="-0.36" y1="0.05" x2="30.59" y2="0.05" gradientUnits="userSpaceOnUse"><stop offset="0.09" stop-color="#6ABF4B"/><stop offset="0.29" stop-color="#63B649"/><stop offset="0.6" stop-color="#529F44"/><stop offset="0.86" stop-color="#3F873F"/></linearGradient><linearGradient id="linear-gradient-5" x1="9.1" y1="24.67" x2="40.04" y2="24.67" xlink:href="#linear-gradient-4"/><linearGradient id="linear-gradient-6" x1="-0.36" y1="28.53" x2="30.59" y2="28.53" xlink:href="#linear-gradient-4"/><linearGradient id="linear-gradient-7" x1="9.1" y1="37.49" x2="40.04" y2="37.49" xlink:href="#linear-gradient-4"/><linearGradient id="linear-gradient-8" x1="44.55" y1="12.84" x2="25.47" y2="51.77" xlink:href="#linear-gradient"/></defs><title>nodejs-new-pantone-black</title><path class="cls-2" d="M25.38,7.81a1.67,1.67,0,0,0-1.62,0L10.38,15.54a1.62,1.62,0,0,0-.81,1.4V32.4a1.62,1.62,0,0,0,.81,1.4l13.38,7.73a1.62,1.62,0,0,0,1.62,0L38.76,33.8a1.62,1.62,0,0,0,.81-1.4V16.94a1.62,1.62,0,0,0-.81-1.4Z" transform="translate(-9.46 -4.97)"/><g class="cls-3"><path class="cls-4" d="M23.74,7.81,10.32,15.54a1.67,1.67,0,0,0-.86,1.4V32.4a1.55,1.55,0,0,0,.42,1L25,7.65A1.64,1.64,0,0,0,23.74,7.81Z" transform="translate(-9.46 -4.97)"/><path class="cls-4" d="M25,41.69a1.8,1.8,0,0,0,.38-.16L38.8,33.8a1.65,1.65,0,0,0,.84-1.4V16.94a1.57,1.57,0,0,0-.49-1.12Z" transform="translate(-9.46 -4.97)"/><path class="cls-5" d="M38.79,15.54,25.37,7.81A1.81,1.81,0,0,0,25,7.65L9.88,33.43a2,2,0,0,0,.45.37l13.44,7.73a1.66,1.66,0,0,0,1.25.16L39.15,15.82A1.59,1.59,0,0,0,38.79,15.54Z" transform="translate(-9.46 -4.97)"/><path class="cls-4" d="M39.64,32.4V16.94a1.66,1.66,0,0,0-.85-1.4L25.37,7.81a2.13,2.13,0,0,0-.5-.18L39.59,32.77A1.5,1.5,0,0,0,39.64,32.4Z" transform="translate(-9.46 -4.97)"/><path class="cls-4" d="M10.32,15.54a1.67,1.67,0,0,0-.86,1.4V32.4a1.68,1.68,0,0,0,.87,1.4l13.44,7.73a1.65,1.65,0,0,0,1,.2L10.4,15.49Z" transform="translate(-9.46 -4.97)"/><polygon class="cls-6" points="13.86 0 13.68 0.1 13.92 0.1 13.86 0"/><path class="cls-7" d="M38.8,33.8a1.7,1.7,0,0,0,.79-1L24.87,7.63a1.65,1.65,0,0,0-1.13.18L10.4,15.49,24.81,41.73a1.65,1.65,0,0,0,.59-.2Z" transform="translate(-9.46 -4.97)"/><polygon class="cls-8" points="30.59 28.57 30.5 28.42 30.5 28.63 30.59 28.57"/><path class="cls-9" d="M38.8,33.8,25.4,41.53a1.65,1.65,0,0,1-.59.2l.26.49L40,33.6v-.2l-.37-.63A1.7,1.7,0,0,1,38.8,33.8Z" transform="translate(-9.46 -4.97)"/><path class="cls-10" d="M38.8,33.8,25.4,41.53a1.65,1.65,0,0,1-.59.2l.26.49L40,33.6v-.2l-.37-.63A1.7,1.7,0,0,1,38.8,33.8Z" transform="translate(-9.46 -4.97)"/></g></svg>
