<?xml version="1.0" encoding="utf-8"?>
<!-- Generator: Adobe Illustrator 26.5.0, SVG Export Plug-In . SVG Version: 6.00 Build 0)  -->
<svg version="1.1" xmlns="http://www.w3.org/2000/svg" xmlns:xlink="http://www.w3.org/1999/xlink" x="0px" y="0px"
	 viewBox="0 0 426.7 181.5" style="enable-background:new 0 0 426.7 181.5;" xml:space="preserve">
<style type="text/css">
	.st0{display:none;}
	.st1{display:inline;}
	.st2{fill:#CECCCC;}
	.st3{opacity:0.5;fill:#00A2E3;}
	.st4{font-family:'Metropolis-Regular';}
	.st5{font-size:52px;}
	.st6{fill:none;stroke:#00A2E3;stroke-width:1.1219;stroke-miterlimit:10;}
	.st7{fill:none;stroke:#00A2E3;stroke-width:1.2595;stroke-miterlimit:10;}
	.st8{fill:none;stroke:#00A2E3;stroke-width:1.1484;stroke-miterlimit:10;}
	.st9{fill:none;stroke:#00A2E3;stroke-width:1.4735;stroke-miterlimit:10;}
	.st10{fill:none;stroke:#00A2E3;stroke-width:1.447;stroke-miterlimit:10;}
	.st11{fill:#717074;}
	.st12{fill:#78BE20;}
	.st13{fill:#0091DA;}
	.st14{fill:none;stroke:#EC7700;stroke-width:4.3641;stroke-linecap:round;stroke-linejoin:round;stroke-miterlimit:10;}
	.st15{fill:#1D428A;}
</style>
<g id="guides_-_delete" class="st0">
	<g id="horiz_2_" class="st1">
		<rect id="horiz_1_" x="35.5" y="36" class="st2" width="108" height="108"/>
		<text transform="matrix(0 -1 1 0 36.7034 76.3669)" class="st3 st4 st5">V</text>
		<text transform="matrix(0 -1 1 0 426.8938 119.1633)" class="st3 st4 st5">V</text>
		<rect x="36.5" y="36.3" class="st6" width="355.4" height="107.1"/>
		<polyline class="st7" points="143,229.1 143,-83.4 164.8,-83.4 164.8,229.1 		"/>
		<rect x="0.7" y="0.7" class="st8" width="425.8" height="180.1"/>
	</g>
</g>
<g id="vert">
</g>
<g id="horiz">
	<g>
		<path class="st11" d="M201.7,44.7l-16.1,36.4h-4.5l-16.1-36.4h4.5L183.4,76l13.8-31.3H201.7z"/>
		<path class="st11" d="M207.4,44.7h4.1L225,70l13.5-25.4h4.1v36.4h-4.1V53.6L225,78.9l-13.5-25.4v27.5h-4.1V44.7z"/>
		<path class="st11" d="M247.9,53.7h4.2l6.8,22.1l7.5-22.1h3.4l7.5,22.1l6.8-22.1h4.2l-9.2,27.4h-3.8l-7.3-21.9l-7.4,21.9h-3.8
			L247.9,53.7z"/>
		<path class="st11" d="M310.7,56.1c1.9,2.1,2.8,4.8,2.8,8.2v16.7h-4v-4.3c-1,1.6-2.3,2.8-4.1,3.6c-1.8,0.9-3.6,1.3-5.5,1.3
			c-2.9,0-5.3-0.8-7.2-2.4c-1.9-1.6-2.8-3.7-2.8-6.4c0-1.8,0.5-3.3,1.5-4.7c1-1.4,2.3-2.5,3.9-3.2c1.6-0.8,3.4-1.1,5.4-1.1
			c2.8,0,5.7,0.5,8.9,1.5v-1c0-2.2-0.6-4.1-1.7-5.6c-1.1-1.5-3-2.3-5.7-2.3c-1.2,0-2.5,0.2-3.8,0.7c-1.3,0.4-2.7,1.1-4.2,1.8
			l-1.6-3.2c3.5-1.8,6.8-2.6,9.9-2.6C306,53,308.8,54.1,310.7,56.1z M306.2,76.7c1.7-1,2.9-2.4,3.4-4.2v-4.2
			c-2.7-0.7-5.4-1.1-8.3-1.1c-2.1,0-3.9,0.5-5.3,1.6c-1.5,1.1-2.2,2.4-2.2,4c0,1.7,0.6,3,1.9,3.9c1.3,1,2.9,1.5,4.9,1.5
			C302.6,78.2,304.4,77.7,306.2,76.7z"/>
		<path class="st11" d="M328.9,54.6c1.9-1.1,4.1-1.6,6.6-1.6v3.6c-2,0-3.9,0.4-5.5,1.2c-1.6,0.8-2.9,1.9-3.8,3.3
			c-0.9,1.4-1.4,3-1.4,4.7v15.3h-4V53.7h4V59C325.7,57.2,327.1,55.7,328.9,54.6z"/>
		<path class="st11" d="M355.8,77.2c1.6-0.6,2.9-1.4,3.7-2.3l2.4,2.6c-1.2,1.3-2.8,2.3-4.9,3.1c-2.1,0.8-4.1,1.2-6.1,1.2
			c-2.4,0-4.7-0.6-6.8-1.9c-2.1-1.2-3.8-3-5.1-5.2c-1.3-2.2-1.9-4.7-1.9-7.4c0-2.7,0.6-5.1,1.8-7.3c1.2-2.2,2.9-3.9,4.9-5.1
			c2.1-1.2,4.3-1.9,6.8-1.9c4.1,0,7.3,1.4,9.6,4.3c2.3,2.9,3.4,6.7,3.4,11.6h-22.4c0.3,2.7,1.3,4.9,3.1,6.7c1.8,1.7,4,2.6,6.7,2.6
			C352.6,78.2,354.2,77.8,355.8,77.2z M344.4,59c-1.8,1.6-2.8,3.7-3.2,6.3h18.4c-0.3-2.6-1.2-4.7-2.7-6.3c-1.5-1.6-3.6-2.4-6.2-2.4
			C348.3,56.6,346.2,57.4,344.4,59z"/>
		<path class="st11" d="M184.9,121.9h14.6v14.3c-1.7,1.7-3.8,3-6.4,4.1s-5.2,1.5-7.7,1.5c-3.3,0-6.4-0.9-9.2-2.6
			c-2.9-1.7-5.2-4-6.9-6.9c-1.7-2.9-2.5-6-2.5-9.4c0-3.4,0.8-6.5,2.5-9.4c1.7-2.9,4-5.2,6.9-6.9c2.9-1.7,6-2.6,9.2-2.6
			c2.5,0,5.1,0.5,7.7,1.5c2.6,1,4.8,2.4,6.4,4.1l-2.8,2.9c-1.3-1.4-3-2.5-5.1-3.3c-2.1-0.8-4.2-1.3-6.2-1.3c-2.6,0-5,0.7-7.2,2
			c-2.2,1.4-4,3.2-5.3,5.5c-1.3,2.3-2,4.8-2,7.4c0,2.7,0.7,5.2,2,7.5c1.3,2.3,3.1,4.1,5.3,5.5c2.2,1.4,4.6,2.1,7.2,2.1
			c1.7,0,3.5-0.3,5.3-0.9c1.8-0.6,3.4-1.4,4.7-2.5v-8.7h-10.4V121.9z"/>
		<path class="st11" d="M224.1,137.2c1.6-0.6,2.9-1.4,3.7-2.3l2.4,2.6c-1.2,1.3-2.8,2.3-4.9,3.1c-2.1,0.8-4.1,1.2-6.1,1.2
			c-2.4,0-4.7-0.6-6.8-1.9c-2.1-1.2-3.8-3-5.1-5.2c-1.3-2.2-1.9-4.7-1.9-7.4c0-2.7,0.6-5.1,1.8-7.3c1.2-2.2,2.9-3.9,4.9-5.1
			c2.1-1.2,4.3-1.9,6.8-1.9c4.1,0,7.3,1.4,9.6,4.3c2.3,2.9,3.4,6.7,3.4,11.6h-22.4c0.3,2.7,1.3,4.9,3.1,6.7c1.8,1.7,4,2.6,6.7,2.6
			C220.9,138.2,222.5,137.8,224.1,137.2z M212.7,119c-1.8,1.6-2.8,3.7-3.2,6.3H228c-0.3-2.6-1.2-4.7-2.7-6.3
			c-1.5-1.6-3.6-2.4-6.2-2.4C216.6,116.6,214.5,117.4,212.7,119z"/>
		<path class="st11" d="M272.2,114.4c1.5,0.9,2.6,2.2,3.5,3.8c0.8,1.6,1.2,3.4,1.2,5.5v17.4h-4v-16.9c0-2.2-0.6-4-1.8-5.5
			c-1.2-1.4-2.7-2.1-4.5-2.1c-2.2,0-4,0.7-5.4,2s-2.1,3-2.1,5.1v17.4h-4v-16.9c0-2.2-0.6-4-1.8-5.5c-1.2-1.4-2.7-2.1-4.5-2.1
			c-2.2,0-4,0.7-5.4,2s-2.1,3-2.1,5.1v17.4h-4v-27.4h4v4c0.7-1.4,1.8-2.6,3.2-3.4c1.4-0.8,3-1.2,4.8-1.2c2.2,0,4,0.6,5.6,1.7
			c1.6,1.2,2.8,2.8,3.5,4.8c0.4-1.9,1.4-3.5,3-4.7c1.6-1.2,3.4-1.8,5.6-1.8C269.1,113,270.7,113.5,272.2,114.4z"/>
		<path class="st11" d="M289.8,108.6v12h19.8v3.9h-19.8v16.6h-4.2v-36.4h26.1v3.9H289.8z"/>
		<path class="st11" d="M317.4,107.9c-0.5-0.5-0.8-1.1-0.8-1.9c0-0.7,0.3-1.3,0.8-1.8c0.5-0.5,1.1-0.8,1.9-0.8
			c0.7,0,1.3,0.3,1.8,0.8c0.5,0.5,0.8,1.1,0.8,1.8c0,0.7-0.3,1.3-0.8,1.9c-0.5,0.5-1.1,0.8-1.8,0.8
			C318.5,108.7,317.9,108.4,317.4,107.9z M317.2,113.7h4v27.4h-4V113.7z"/>
		<path class="st11" d="M337,114.6c1.9-1.1,4.1-1.6,6.6-1.6v3.6c-2,0-3.9,0.4-5.5,1.2c-1.6,0.8-2.9,1.9-3.8,3.3
			c-0.9,1.4-1.4,3-1.4,4.7v15.3h-4v-27.4h4v5.4C333.8,117.2,335.1,115.7,337,114.6z"/>
		<path class="st11" d="M363.9,137.2c1.6-0.6,2.9-1.4,3.7-2.3l2.4,2.6c-1.2,1.3-2.8,2.3-4.9,3.1c-2.1,0.8-4.1,1.2-6.1,1.2
			c-2.4,0-4.7-0.6-6.8-1.9c-2.1-1.2-3.8-3-5.1-5.2c-1.3-2.2-1.9-4.7-1.9-7.4c0-2.7,0.6-5.1,1.8-7.3c1.2-2.2,2.9-3.9,4.9-5.1
			c2.1-1.2,4.3-1.9,6.8-1.9c4.1,0,7.3,1.4,9.6,4.3c2.3,2.9,3.4,6.7,3.4,11.6h-22.4c0.3,2.7,1.3,4.9,3.1,6.7c1.8,1.7,4,2.6,6.7,2.6
			C360.6,138.2,362.2,137.8,363.9,137.2z M352.5,119c-1.8,1.6-2.8,3.7-3.2,6.3h18.4c-0.3-2.6-1.2-4.7-2.7-6.3
			c-1.5-1.6-3.6-2.4-6.2-2.4C356.4,116.6,354.2,117.4,352.5,119z"/>
		<path class="st11" d="M383.8,103.1c1.1,0.6,1.9,1.5,2.5,2.5c0.6,1.1,0.9,2.2,0.9,3.4s-0.3,2.4-0.9,3.4s-1.5,1.9-2.5,2.5
			c-1.1,0.6-2.2,0.9-3.4,0.9c-1.3,0-2.4-0.3-3.5-0.9c-1.1-0.6-1.9-1.5-2.5-2.5c-0.6-1.1-0.9-2.2-0.9-3.4s0.3-2.4,0.9-3.4
			c0.6-1.1,1.5-1.9,2.5-2.5c1.1-0.6,2.2-0.9,3.5-0.9C381.6,102.2,382.7,102.5,383.8,103.1z M383.3,114.1c0.9-0.5,1.6-1.2,2.1-2.1
			c0.5-0.9,0.8-1.9,0.8-3s-0.3-2-0.8-2.9c-0.5-0.9-1.2-1.6-2.1-2.1c-0.9-0.5-1.9-0.8-2.9-0.8s-2,0.3-3,0.8c-0.9,0.5-1.6,1.2-2.2,2.1
			c-0.5,0.9-0.8,1.9-0.8,2.9s0.3,2,0.8,2.9c0.5,0.9,1.2,1.6,2.2,2.1c0.9,0.5,1.9,0.8,3,0.8S382.4,114.6,383.3,114.1z M383.6,109.4
			c-0.3,0.5-0.8,0.8-1.3,1l2,2.8h-2.1l-1.8-2.5H379v2.5h-2.1v-8.4h3.9c1,0,1.7,0.3,2.3,0.8c0.6,0.5,0.9,1.2,0.9,2.1
			C384.1,108.4,383.9,109,383.6,109.4z M379,108.6h1.6c0.4,0,0.6-0.1,0.9-0.2c0.2-0.2,0.3-0.4,0.3-0.6c0-0.2-0.1-0.4-0.3-0.6
			c-0.2-0.2-0.5-0.2-0.9-0.2H379V108.6z"/>
	</g>
	<g>
		<g>
			<path class="st12" d="M48.2,133.6c-0.5,0-0.9-0.1-1.3-0.4c-9.1-6.9-10.5-15.1-10.5-19.4V66.3c0-4.3,1.4-12.4,10.5-19.4
				c0.9-0.7,2.3-0.5,3,0.4c0.7,0.9,0.5,2.3-0.4,3c-7.2,5.5-8.8,11.7-8.8,16v47.5c0,4.2,1.5,10.4,8.8,16c0.9,0.7,1.1,2.1,0.4,3
				C49.5,133.3,48.9,133.6,48.2,133.6z"/>
			<path class="st13" d="M131.5,133.6c-0.6,0-1.3-0.3-1.7-0.8c-0.7-0.9-0.5-2.3,0.4-3c7.2-5.5,8.8-11.7,8.8-16V66.3
				c0-4.2-1.5-10.4-8.8-16c-0.9-0.7-1.1-2.1-0.4-3c0.7-0.9,2.1-1.1,3-0.4c9.1,6.9,10.5,15.1,10.5,19.4v47.5
				c0,4.3-1.4,12.4-10.5,19.4C132.5,133.4,132,133.6,131.5,133.6z"/>
			<g>
				<path class="st15" d="M118.1,51.4c-7.6-3.2-17.6-5-28.2-5c-10.6,0-20.6,1.8-28.2,5C53.5,54.8,49,59.6,49,64.9c0,0.3,0,0.7,0.1,1
					c0,0.2-0.1,0.3-0.1,0.5v19.2c0,12,18,21.4,40.9,21.4c6.8,0,13.4-0.9,19.3-2.5c1.1-0.3,1.8-1.5,1.5-2.6c-0.3-1.1-1.5-1.8-2.6-1.5
					c-5.5,1.5-11.8,2.3-18.2,2.3c-19.8,0-36.6-7.8-36.6-17.1V73.4c2.1,1.9,4.9,3.6,8.4,5.1c7.6,3.2,17.6,5,28.2,5
					c10.6,0,20.6-1.8,28.2-5c8.2-3.4,12.7-8.3,12.7-13.6C130.8,59.6,126.3,54.8,118.1,51.4z M116.4,74.5c-7.1,3-16.5,4.6-26.6,4.6
					c-10.1,0-19.5-1.6-26.6-4.6c-6.4-2.7-10-6.2-10-9.6c0-3.4,3.7-6.9,10-9.6c7.1-3,16.5-4.6,26.6-4.6c10.1,0,19.5,1.6,26.6,4.6
					c6.4,2.7,10,6.2,10,9.6C126.5,68.3,122.8,71.8,116.4,74.5z"/>
				<path class="st15" d="M118.7,122.6c-7.1,3.6-17.6,5.6-28.8,5.6c-10.1,0-19.5-1.6-26.6-4.6c-6.4-2.7-10-6.2-10-9.6v-13.8
					c0-1.2-1-2.1-2.1-2.1c-1.2,0-2.1,1-2.1,2.1V114c0,5.3,4.5,10.1,12.7,13.6c7.6,3.2,17.6,5,28.2,5c11.8,0,23-2.2,30.7-6.1
					c1.1-0.5,1.5-1.8,0.9-2.9C121,122.5,119.7,122,118.7,122.6z"/>
			</g>
			<path class="st15" d="M97.9,120c-1.1,0-2-0.8-2.1-1.9c-0.1-1.2,0.7-2.2,1.9-2.3c2.7-0.3,5.4-0.7,7.9-1.2c1.2-0.2,2.3,0.5,2.5,1.7
				s-0.5,2.3-1.7,2.5c-2.6,0.5-5.4,1-8.3,1.2C98,120,98,120,97.9,120z"/>
			<path class="st12" d="M87,120.2C87,120.2,87,120.2,87,120.2c-3.9-0.1-7.6-0.3-11.2-0.9c-1.2-0.2-2-1.3-1.8-2.4s1.3-2,2.4-1.8
				c3.5,0.5,7,0.8,10.6,0.8c1.2,0,2.1,1,2.1,2.2C89.1,119.3,88.2,120.2,87,120.2z"/>
			<circle class="st15" cx="117.4" cy="114.2" r="2.1"/>
			<circle class="st13" cx="127.9" cy="110.1" r="2.1"/>
			<path class="st15" d="M97.9,95.2c-1.1,0-2-0.8-2.1-1.9c-0.1-1.2,0.7-2.2,1.9-2.3c2.7-0.3,5.4-0.7,7.9-1.2
				c1.2-0.2,2.3,0.5,2.5,1.7s-0.5,2.3-1.7,2.5c-2.6,0.5-5.4,1-8.3,1.2C98,95.2,98,95.2,97.9,95.2z"/>
			<path class="st12" d="M87,95.4C87,95.4,87,95.4,87,95.4c-3.9-0.1-7.6-0.3-11.2-0.9c-1.2-0.2-2-1.3-1.8-2.4c0.2-1.2,1.3-2,2.4-1.8
				c3.5,0.5,7,0.8,10.6,0.8c1.2,0,2.1,1,2.1,2.2C89.1,94.5,88.2,95.4,87,95.4z"/>
			<circle class="st15" cx="117.4" cy="89.5" r="2.1"/>
			<circle class="st13" cx="127.9" cy="85.4" r="2.1"/>
		</g>
	</g>
</g>
</svg>
