<?xml version="1.0" encoding="UTF-8"?>
<svg id="Layer_2" data-name="Layer 2" xmlns="http://www.w3.org/2000/svg" viewBox="0 0 456 456">
  <defs>
    <style>
      .cls-1 {
        fill: #fff;
      }

      .cls-2 {
        fill: #512bd4;
      }
    </style>
  </defs>
  <g id="Layer_1-2" data-name="Layer 1">
    <rect class="cls-2" width="456" height="456"/>
    <path class="cls-1" d="m81.27,291.33c-3.22,0-5.96-1.07-8.22-3.22-2.26-2.2-3.39-4.82-3.39-7.85s1.13-5.73,3.39-7.93c2.26-2.2,5-3.31,8.22-3.31s6.05,1.1,8.3,3.31c2.31,2.2,3.47,4.85,3.47,7.93s-1.16,5.65-3.47,7.85c-2.26,2.15-5.02,3.22-8.3,3.22Z"/>
    <path class="cls-1" d="m210.17,289.52h-20.96l-55.21-87.11c-1.4-2.2-2.55-4.49-3.47-6.86h-.48c.43,2.53.64,7.96.64,16.28v77.69h-18.54v-118.52h22.33l53.36,85.04c2.26,3.53,3.71,5.95,4.35,7.27h.32c-.54-3.14-.81-8.46-.81-15.95v-76.37h18.46v118.52Z"/>
    <path class="cls-1" d="m300.45,289.52h-64.89v-118.52h62.31v16.7h-43.12v33.55h39.74v16.61h-39.74v35.04h45.7v16.61Z"/>
    <path class="cls-1" d="m392.67,187.7h-33.21v101.82h-19.18v-101.82h-33.13v-16.7h85.52v16.7Z"/>
  </g>
</svg>