<?xml version="1.0" encoding="utf-8"?>
<!-- Generator: Adobe Illustrator 27.3.1, SVG Export Plug-In . SVG Version: 6.00 Build 0)  -->
<svg version="1.1" id="Layer_1" xmlns="http://www.w3.org/2000/svg" xmlns:xlink="http://www.w3.org/1999/xlink" x="0px" y="0px"
	 viewBox="0 0 46 46" style="enable-background:new 0 0 46 46;" xml:space="preserve">
<style type="text/css">
	.st0{fill:#00599C;}
	.st1{fill:#004482;}
	.st2{fill:#659AD2;}
	.st3{fill:#FFFFFF;}
</style>
<path class="st0" d="M42.9,34.5c0.3-0.6,0.5-1.2,0.5-1.7V13.2c0-0.6-0.2-1.2-0.5-1.7L23,23L42.9,34.5z"/>
<path class="st1" d="M24.8,45.6l16.9-9.8c0.5-0.3,0.9-0.8,1.2-1.3L23,23L3.1,34.5c0.3,0.6,0.8,1,1.2,1.3l16.9,9.8
	C22.2,46.1,23.8,46.1,24.8,45.6z"/>
<path class="st2" d="M42.9,11.5c-0.3-0.6-0.8-1-1.3-1.3L24.8,0.4c-1-0.6-2.6-0.6-3.5,0L4.3,10.2c-1,0.6-1.8,1.9-1.8,3.1v19.5
	c0,0.6,0.2,1.2,0.5,1.7L23,23L42.9,11.5z"/>
<g>
	<path class="st3" d="M23,36.6c-7.5,0-13.6-6.1-13.6-13.6S15.5,9.4,23,9.4c4.8,0,9.4,2.6,11.8,6.8l-5.9,3.4
		c-1.2-2.1-3.5-3.4-5.9-3.4c-3.8,0-6.8,3.1-6.8,6.8c0,3.8,3.1,6.8,6.8,6.8c2.4,0,4.7-1.3,5.9-3.4l5.9,3.4C32.4,34,27.8,36.6,23,36.6
		z"/>
</g>
<g>
	<polygon class="st3" points="36.6,22.2 35.1,22.2 35.1,20.7 33.6,20.7 33.6,22.2 32.1,22.2 32.1,23.8 33.6,23.8 33.6,25.3 
		35.1,25.3 35.1,23.8 36.6,23.8 	"/>
</g>
<g>
	<polygon class="st3" points="42.3,22.2 40.8,22.2 40.8,20.7 39.3,20.7 39.3,22.2 37.8,22.2 37.8,23.8 39.3,23.8 39.3,25.3 
		40.8,25.3 40.8,23.8 42.3,23.8 	"/>
</g>
</svg>
