<svg xmlns="http://www.w3.org/2000/svg" viewBox="0 0 125.1 23.04">
  <g>
    <g>
      <path d="M51.58,17.33l-5.26-15a2.8,2.8,0,0,1-.16-.72A1.28,1.28,0,0,1,47.46.38a1.36,1.36,0,0,1,1.31,1.09l4.35,12.9L57.51,1.44A1.32,1.32,0,0,1,58.78.38h.13a1.38,1.38,0,0,1,1.35,1.06l4.35,12.93L69,1.4a1.28,1.28,0,0,1,1.24-1,1.24,1.24,0,0,1,1.27,1.23,2.8,2.8,0,0,1-.16.72l-5.3,15a1.53,1.53,0,0,1-1.4,1.2h-.1a1.44,1.44,0,0,1-1.41-1.2L58.85,4.61,54.49,17.33a1.44,1.44,0,0,1-1.4,1.2H53a1.54,1.54,0,0,1-1.44-1.2" class="cls-1" fill="#fff"/>
      <path d="M89.9,1.68a1.29,1.29,0,1,1,2.58,0v3a7.06,7.06,0,0,1,6-4.34,1.25,1.25,0,0,1,1.27,1.33,1.3,1.3,0,0,1-1.14,1.34c-3.36.41-6.11,3-6.11,8.1v6a1.29,1.29,0,0,1-1.27,1.33,1.3,1.3,0,0,1-1.31-1.33V1.68" class="cls-1" fill="#fff"/>
      <path d="M108,18.67c-4.67,0-8.48-3.7-8.48-9.13V9.46c0-5.05,3.45-9.13,8.15-9.13,5,0,7.89,4.24,7.89,8.9a1.2,1.2,0,0,1-1.18,1.22H102.11c.35,3.8,3,5.94,6,5.94a6.82,6.82,0,0,0,4.89-2,1.15,1.15,0,0,1,.73-.3,1.12,1.12,0,0,1,1.12,1.12,1.16,1.16,0,0,1-.4.85A8.53,8.53,0,0,1,108,18.67m5-10.15c-.26-3.2-2-6-5.42-6-3,0-5.2,2.54-5.52,6Z" class="cls-1" fill="#fff"/>
      <path d="M71.59,13.17V13.1c0-3.72,3-5.71,7.39-5.71a18.15,18.15,0,0,1,5.32.75V7.53c0-3.18-1.91-4.83-5.15-4.83a8.64,8.64,0,0,0-4,.81,1.2,1.2,0,0,1-.46.1,1.16,1.16,0,0,1-1.14-1.13,1.08,1.08,0,0,1,.7-1.09,11.22,11.22,0,0,1,5.2-1,7.47,7.47,0,0,1,5.58,2,7.08,7.08,0,0,1,1.77,5.16v9.76a1.24,1.24,0,0,1-1.24,1.3,1.2,1.2,0,0,1-1.23-1.23V15.63a7.51,7.51,0,0,1-6.25,3c-3.21,0-6.46-1.88-6.46-5.51M84.33,11.8V10.09a17.91,17.91,0,0,0-5.08-.75c-3.24,0-5,1.44-5,3.66v.07c0,2.22,2,3.52,4.35,3.52,3.17,0,5.78-2,5.78-4.79" class="cls-1" fill="#fff"/>
      <path d="M4.72,1.49A2.41,2.41,0,0,0,1.45.24,2.47,2.47,0,0,0,.25,3.59l5.49,12.2C6.6,17.7,7.51,18.7,9.22,18.7s2.62-1.09,3.48-2.91L17.54,5a.68.68,0,0,1,.68-.45.77.77,0,0,1,.76.79V15.77c0,1.61.87,2.93,2.55,2.93s2.58-1.32,2.58-2.93V7.24a2.6,2.6,0,0,1,2.73-2.71,2.53,2.53,0,0,1,2.61,2.71v8.53c0,1.61.88,2.93,2.55,2.93a2.63,2.63,0,0,0,2.59-2.93V7.24a2.59,2.59,0,0,1,2.72-2.71,2.53,2.53,0,0,1,2.62,2.71v8.53c0,1.61.87,2.93,2.55,2.93s2.58-1.32,2.58-2.93V6.07A6,6,0,0,0,38.88,0a7.86,7.86,0,0,0-5.49,2.39A6,6,0,0,0,28.1,0c-2.76,0-5.18,2.39-5.18,2.39A6.14,6.14,0,0,0,18.3,0a5.68,5.68,0,0,0-5.58,3.88l-3.5,8.45L4.72,1.49" class="cls-1" fill="#fff"/>
      <path d="M115.79,2.54h0a2.14,2.14,0,1,1,4.28,0h0a2.14,2.14,0,1,1-4.28,0m3.87,0h0A1.74,1.74,0,0,0,117.93.74a1.77,1.77,0,0,0-1.74,1.79h0a1.74,1.74,0,1,0,3.47,0" class="cls-1" fill="#fff"/>
      <path d="M117.11,1.67a.23.23,0,0,1,.23-.24h.72a.8.8,0,0,1,.6.22.65.65,0,0,1,.18.48h0a.64.64,0,0,1-.41.64l.31.39a.26.26,0,0,1,.07.18.21.21,0,0,1-.21.22.29.29,0,0,1-.23-.12l-.44-.58h-.36v.47a.23.23,0,1,1-.46,0Zm.92.79c.22,0,.34-.12.34-.3h0c0-.19-.13-.3-.35-.3h-.45v.61Z" class="cls-1" fill="#fff"/>
    </g>
  </g>
</svg>
